<svg width="76" height="97" viewBox="0 0 76 97" fill="none" xmlns="http://www.w3.org/2000/svg">
<g filter="url(#filter0_f_202_2)">
<ellipse cx="38" cy="89.5714" rx="12.6667" ry="4.52381" fill="black" fill-opacity="0.2"/>
</g>
<path fill-rule="evenodd" clip-rule="evenodd" d="M38 0C58.9868 0 76 17.0132 76 38C76 54.0913 65.9983 67.8466 51.8724 73.3883L40.1644 89.3917C39.9203 89.7267 39.5962 90.0001 39.2195 90.1889C38.8428 90.3776 38.4245 90.4762 38 90.4762C37.5755 90.4762 37.1572 90.3776 36.7805 90.1889C36.4038 90.0001 36.0797 89.7267 35.8356 89.3917L24.1276 73.3883C10.0017 67.8466 0 54.0913 0 38C0 17.0132 17.0132 0 38 0Z" fill="#2EAC5F"/>
<path d="M9.96383 40.72C9.96383 39.04 10.3038 37.57 10.9838 36.31C11.6638 35.03 12.5938 34.04 13.7738 33.34C14.9738 32.64 16.3138 32.29 17.7938 32.29C19.0738 32.29 20.2638 32.59 21.3638 33.19C22.4638 33.77 23.3038 34.54 23.8838 35.5V26.8H26.6438V49H23.8838V45.91C23.3438 46.89 22.5438 47.7 21.4838 48.34C20.4238 48.96 19.1838 49.27 17.7638 49.27C16.3038 49.27 14.9738 48.91 13.7738 48.19C12.5938 47.47 11.6638 46.46 10.9838 45.16C10.3038 43.86 9.96383 42.38 9.96383 40.72ZM23.8838 40.75C23.8838 39.51 23.6338 38.43 23.1338 37.51C22.6338 36.59 21.9538 35.89 21.0938 35.41C20.2538 34.91 19.3238 34.66 18.3038 34.66C17.2838 34.66 16.3538 34.9 15.5138 35.38C14.6738 35.86 14.0038 36.56 13.5038 37.48C13.0038 38.4 12.7538 39.48 12.7538 40.72C12.7538 41.98 13.0038 43.08 13.5038 44.02C14.0038 44.94 14.6738 45.65 15.5138 46.15C16.3538 46.63 17.2838 46.87 18.3038 46.87C19.3238 46.87 20.2538 46.63 21.0938 46.15C21.9538 45.65 22.6338 44.94 23.1338 44.02C23.6338 43.08 23.8838 41.99 23.8838 40.75ZM45.8373 32.56V49H43.1073V46.57C42.5873 47.41 41.8573 48.07 40.9173 48.55C39.9973 49.01 38.9773 49.24 37.8573 49.24C36.5773 49.24 35.4273 48.98 34.4073 48.46C33.3873 47.92 32.5773 47.12 31.9773 46.06C31.3973 45 31.1073 43.71 31.1073 42.19V32.56H33.8073V41.83C33.8073 43.45 34.2173 44.7 35.0373 45.58C35.8573 46.44 36.9773 46.87 38.3973 46.87C39.8573 46.87 41.0073 46.42 41.8473 45.52C42.6873 44.62 43.1073 43.31 43.1073 41.59V32.56H45.8373ZM57.6167 49.27C56.0767 49.27 54.6767 48.92 53.4167 48.22C52.1767 47.52 51.1967 46.53 50.4767 45.25C49.7767 43.95 49.4267 42.45 49.4267 40.75C49.4267 39.07 49.7867 37.59 50.5067 36.31C51.2467 35.01 52.2467 34.02 53.5067 33.34C54.7667 32.64 56.1767 32.29 57.7367 32.29C59.2967 32.29 60.7067 32.64 61.9667 33.34C63.2267 34.02 64.2167 35 64.9367 36.28C65.6767 37.56 66.0467 39.05 66.0467 40.75C66.0467 42.45 65.6667 43.95 64.9067 45.25C64.1667 46.53 63.1567 47.52 61.8767 48.22C60.5967 48.92 59.1767 49.27 57.6167 49.27ZM57.6167 46.87C58.5967 46.87 59.5167 46.64 60.3767 46.18C61.2367 45.72 61.9267 45.03 62.4467 44.11C62.9867 43.19 63.2567 42.07 63.2567 40.75C63.2567 39.43 62.9967 38.31 62.4767 37.39C61.9567 36.47 61.2767 35.79 60.4367 35.35C59.5967 34.89 58.6867 34.66 57.7067 34.66C56.7067 34.66 55.7867 34.89 54.9467 35.35C54.1267 35.79 53.4667 36.47 52.9667 37.39C52.4667 38.31 52.2167 39.43 52.2167 40.75C52.2167 42.09 52.4567 43.22 52.9367 44.14C53.4367 45.06 54.0967 45.75 54.9167 46.21C55.7367 46.65 56.6367 46.87 57.6167 46.87Z" fill="white"/>
<defs>
<filter id="filter0_f_202_2" x="23.3333" y="83.0476" width="29.3333" height="13.0476" filterUnits="userSpaceOnUse" color-interpolation-filters="sRGB">
<feFlood flood-opacity="0" result="BackgroundImageFix"/>
<feBlend mode="normal" in="SourceGraphic" in2="BackgroundImageFix" result="shape"/>
<feGaussianBlur stdDeviation="1" result="effect1_foregroundBlur_202_2"/>
</filter>
</defs>
</svg>
